<svg width="554" height="263" viewBox="0 0 554 263" fill="none" xmlns="http://www.w3.org/2000/svg">
<path d="M197.67 173.56V185.3C190.81 177.34 181.72 173.56 170.31 173.56C148.41 173.56 128.57 188.75 128.57 218.12C128.57 248.01 149.81 262.72 170.31 262.72C182.05 262.72 191.11 257.22 197.67 248.16V262.7H228V173.55H197.67V173.56ZM177.02 238.15C167.96 238.15 160.44 230.48 160.44 217.83C160.44 205.95 167.81 198.28 176.87 198.28C185.01 198.28 192.35 203.27 197.67 217.68C193.46 230.34 185.31 238.15 177.02 238.15Z" fill="#1BB99A"/>
<path d="M317.57 179.44H239.4V201.11H279.19L239.4 247.07V262.72H317.57V241.05H276.87L317.57 195.38V179.44Z" fill="#1BB99A"/>
<path d="M414.29 217.81C414.29 186.84 394.79 173.55 369.89 173.55C341.72 173.55 324.07 193.05 324.07 217.95C324.07 245.07 339.06 262.72 371.41 262.72C388.91 262.72 398.82 259.6 410.58 253.72L406.08 233.46C397.11 237.49 388.76 239.96 377.62 239.96C365.39 239.96 358.42 235.31 355.8 226.64H413.53C414 224.31 414.29 221.7 414.29 217.81ZM355 211.02C356.27 201.11 360.27 195.66 369.41 195.66C378.99 195.66 382.55 201.11 383.5 211.02H355Z" fill="#1BB99A"/>
<path d="M512.28 217.81C512.28 186.84 492.78 173.55 467.84 173.55C439.67 173.55 422.02 193.05 422.02 217.95C422.02 245.07 437.05 262.72 469.4 262.72C486.9 262.72 496.77 259.6 508.54 253.72L504.07 233.46C495.1 237.49 486.72 239.96 475.57 239.96C463.33 239.96 456.4 235.31 453.75 226.64H511.48C511.95 224.31 512.28 221.7 512.28 217.81ZM452.99 211.02C454.22 201.11 458.25 195.66 467.37 195.66C476.99 195.66 480.55 201.11 481.46 211.02H452.99Z" fill="#1BB99A"/>
<path d="M523.39 144.01V262.73H553.41V144.01H523.39Z" fill="#1BB99A"/>
<path d="M0.460007 203.36C0.460007 236.14 27.03 262.71 59.81 262.71V203.36H0.460007Z" fill="#1BB99A"/>
<path d="M59.81 144.01C59.81 176.79 86.38 203.36 119.16 203.36V144.01H59.81Z" fill="#1BB99A"/>
<path d="M59.81 262.71C92.59 262.71 119.16 236.14 119.16 203.36C86.39 203.36 59.81 229.93 59.81 262.71Z" fill="#1BB99A"/>
<path d="M0.460007 59.9C0.460007 92.68 27.03 119.25 59.81 119.25V59.9H0.460007Z" fill="#142C48"/>
<path d="M59.81 0.549988C59.81 33.33 86.38 59.9 119.16 59.9V0.549988H59.81Z" fill="#142C48"/>
<path d="M59.81 119.25C92.59 119.25 119.16 92.68 119.16 59.9C86.39 59.9 59.81 86.47 59.81 119.25Z" fill="#142C48"/>
<path d="M329.05 91.47C356 91.39 368.03 74.55 368.03 49.22C368.03 38.69 365.55 26.93 361.99 17.18L339.54 24.15C342.02 33.9 344.49 44.27 344.49 50.16C344.49 56.66 340.62 59.91 330.4 59.91H300.23H300.22H270.05H270.04H239.87H239.86H209.69H209.68H179.51H179.5H149.33H149.32H147.77H119.14L120.17 67.42C122.07 81.21 133.85 91.48 147.77 91.48H147.93H177.95H178.11H208.13H208.29H238.31H238.47H268.49H268.65H298.67H298.83H329.01L329.05 91.47Z" fill="#142C48"/>
<path d="M330.6 96.12C323.42 96.12 318.94 101.2 318.94 107.48C318.94 113.76 323.43 118.84 330.6 118.84C337.63 118.84 342.11 113.76 342.11 107.48C342.11 101.21 337.63 96.12 330.6 96.12Z" fill="#142C48"/>
<path d="M302.49 96.12C295.31 96.12 290.83 101.2 290.83 107.48C290.83 113.76 295.32 118.84 302.49 118.84C309.52 118.84 314 113.76 314 107.48C314.01 101.21 309.52 96.12 302.49 96.12Z" fill="#142C48"/>
<path d="M415.23 0.549988C408.05 0.549988 403.57 5.62999 403.57 11.91C403.57 18.19 408.06 23.27 415.23 23.27C422.26 23.27 426.74 18.19 426.74 11.91C426.75 5.63999 422.26 0.549988 415.23 0.549988Z" fill="#142C48"/>
<path d="M518.46 82.42C511.28 82.42 506.8 87.5 506.8 93.78C506.8 100.06 511.29 105.14 518.46 105.14C525.49 105.14 529.97 100.06 529.97 93.78C529.98 87.51 525.49 82.42 518.46 82.42Z" fill="#142C48"/>
<path d="M553.43 26.57L551.03 56.67H525.91C508.74 69.67 495.74 76.96 483.25 80.99C470.76 85.06 458.78 85.86 443.68 85.86H433.99C428.4 106.41 413.73 119.26 394.53 119.26C385.74 119.26 378.66 117.59 375.8 116.39L377.29 88.25C381.07 88.58 384.55 88.72 387.89 88.72C405.28 88.72 413.3 79.93 413.3 68.9C413.3 63.02 411.85 55.21 410.07 46.79H410.03C409.67 44.97 409.23 43.09 408.83 41.2L406.91 32.38L429.93 25.48L431.85 34.3L433.23 40.73C434.21 45.45 435.08 50.28 435.66 55H445.17C461.36 55 481 55 505.98 46.07C498.1 43.06 488.88 39.72 477.37 39.72C467.24 39.72 460.6 43.68 456.35 46.4L448.18 26.14C452.28 19.79 464.52 10.56 480.71 10.56C494.91 10.56 504.31 16.91 512.15 20.69C523.8 26.28 527.29 26.57 537.42 26.57H553.43Z" fill="#142C48"/>
</svg>
